<svg xmlns="http://www.w3.org/2000/svg" viewBox="0 0 64 64" role="img" aria-label="Career-Ops">
  <rect width="64" height="64" rx="14" fill="#17211d"/>
  <path d="M18 20h28a6 6 0 0 1 6 6v20a6 6 0 0 1-6 6H18a6 6 0 0 1-6-6V26a6 6 0 0 1 6-6Z" fill="#214439"/>
  <path d="M24 20v-3a5 5 0 0 1 5-5h6a5 5 0 0 1 5 5v3" fill="none" stroke="#dff2e4" stroke-width="4" stroke-linecap="round"/>
  <path d="M20 35h24" stroke="#dff2e4" stroke-width="4" stroke-linecap="round"/>
  <circle cx="32" cy="35" r="5" fill="#d64c31" stroke="#f8fbf7" stroke-width="2"/>
  <path d="M22 45h20" stroke="#f8fbf7" stroke-width="3" stroke-linecap="round" opacity=".85"/>
</svg>
